<svg id="visual" viewBox="0 0 900 450" width="900" height="450" xmlns="http://www.w3.org/2000/svg" xmlns:xlink="http://www.w3.org/1999/xlink" version="1.1"><g stroke-width="1" stroke-linejoin="bevel"><path d="M458 208L450 286L516 229Z" fill="#293241" stroke="#293241"></path><path d="M450 286L551 315L516 229Z" fill="#212733" stroke="#212733"></path><path d="M499 343L551 315L450 286Z" fill="#262e3c" stroke="#262e3c"></path><path d="M361 193L386 304L450 286Z" fill="#252c3a" stroke="#252c3a"></path><path d="M450 286L436 354L499 343Z" fill="#293241" stroke="#293241"></path><path d="M536 119L431 148L458 208Z" fill="#232a36" stroke="#232a36"></path><path d="M458 208L361 193L450 286Z" fill="#1f252f" stroke="#1f252f"></path><path d="M386 304L436 354L450 286Z" fill="#222934" stroke="#222934"></path><path d="M431 148L394 159L458 208Z" fill="#272f3d" stroke="#272f3d"></path><path d="M551 315L599 283L516 229Z" fill="#242b38" stroke="#242b38"></path><path d="M516 229L536 119L458 208Z" fill="#262e3c" stroke="#262e3c"></path><path d="M394 159L361 193L458 208Z" fill="#1f252f" stroke="#1f252f"></path><path d="M599 283L611 208L516 229Z" fill="#272f3d" stroke="#272f3d"></path><path d="M579 147L536 119L516 229Z" fill="#252c3a" stroke="#252c3a"></path><path d="M611 208L579 147L516 229Z" fill="#272f3d" stroke="#272f3d"></path><path d="M536 119L448 97L431 148Z" fill="#272f3d" stroke="#272f3d"></path><path d="M431 148L448 97L394 159Z" fill="#242b38" stroke="#242b38"></path><path d="M394 159L322 144L361 193Z" fill="#232a36" stroke="#232a36"></path><path d="M386 304L345 353L436 354Z" fill="#222934" stroke="#222934"></path><path d="M299 292L345 353L386 304Z" fill="#242b38" stroke="#242b38"></path><path d="M361 193L299 292L386 304Z" fill="#1f252f" stroke="#1f252f"></path><path d="M365 66L322 144L394 159Z" fill="#252c3a" stroke="#252c3a"></path><path d="M361 193L272 228L299 292Z" fill="#242b38" stroke="#242b38"></path><path d="M499 343L629 360L551 315Z" fill="#272f3d" stroke="#272f3d"></path><path d="M551 315L629 360L599 283Z" fill="#28313f" stroke="#28313f"></path><path d="M599 283L667 204L611 208Z" fill="#272f3d" stroke="#272f3d"></path><path d="M502 450L629 360L499 343Z" fill="#262e3c" stroke="#262e3c"></path><path d="M462 450L499 343L436 354Z" fill="#222934" stroke="#222934"></path><path d="M684 285L667 204L599 283Z" fill="#1f252f" stroke="#1f252f"></path><path d="M611 208L667 204L579 147Z" fill="#242b38" stroke="#242b38"></path><path d="M579 147L556 64L536 119Z" fill="#28313f" stroke="#28313f"></path><path d="M384 450L462 450L436 354Z" fill="#202631" stroke="#202631"></path><path d="M617 74L556 64L579 147Z" fill="#272f3d" stroke="#272f3d"></path><path d="M536 119L556 64L448 97Z" fill="#222934" stroke="#222934"></path><path d="M462 450L502 450L499 343Z" fill="#242b38" stroke="#242b38"></path><path d="M322 144L272 228L361 193Z" fill="#262e3c" stroke="#262e3c"></path><path d="M629 360L684 285L599 283Z" fill="#202631" stroke="#202631"></path><path d="M448 97L365 66L394 159Z" fill="#252c3a" stroke="#252c3a"></path><path d="M322 144L238 194L272 228Z" fill="#28313f" stroke="#28313f"></path><path d="M447 0L365 66L448 97Z" fill="#1f252f" stroke="#1f252f"></path><path d="M303 450L384 450L345 353Z" fill="#293241" stroke="#293241"></path><path d="M345 353L384 450L436 354Z" fill="#28313f" stroke="#28313f"></path><path d="M272 228L254 280L299 292Z" fill="#1f252f" stroke="#1f252f"></path><path d="M299 292L278 362L345 353Z" fill="#212733" stroke="#212733"></path><path d="M696 144L617 74L579 147Z" fill="#262e3c" stroke="#262e3c"></path><path d="M254 280L278 362L299 292Z" fill="#242b38" stroke="#242b38"></path><path d="M629 360L668 374L684 285Z" fill="#262e3c" stroke="#262e3c"></path><path d="M620 450L668 374L629 360Z" fill="#232a36" stroke="#232a36"></path><path d="M727 210L696 144L667 204Z" fill="#262e3c" stroke="#262e3c"></path><path d="M667 204L696 144L579 147Z" fill="#222934" stroke="#222934"></path><path d="M251 86L238 194L322 144Z" fill="#222934" stroke="#222934"></path><path d="M272 228L238 194L254 280Z" fill="#232a36" stroke="#232a36"></path><path d="M502 450L620 450L629 360Z" fill="#1f252f" stroke="#1f252f"></path><path d="M573 0L496 0L556 64Z" fill="#28313f" stroke="#28313f"></path><path d="M556 64L496 0L448 97Z" fill="#272f3d" stroke="#272f3d"></path><path d="M496 0L447 0L448 97Z" fill="#212733" stroke="#212733"></path><path d="M684 285L727 210L667 204Z" fill="#232a36" stroke="#232a36"></path><path d="M726 298L727 210L684 285Z" fill="#242b38" stroke="#242b38"></path><path d="M775 345L726 298L668 374Z" fill="#1f252f" stroke="#1f252f"></path><path d="M668 374L726 298L684 285Z" fill="#28313f" stroke="#28313f"></path><path d="M278 362L303 450L345 353Z" fill="#242b38" stroke="#242b38"></path><path d="M229 383L303 450L278 362Z" fill="#222934" stroke="#222934"></path><path d="M696 144L659 55L617 74Z" fill="#272f3d" stroke="#272f3d"></path><path d="M617 74L573 0L556 64Z" fill="#1f252f" stroke="#1f252f"></path><path d="M726 44L659 55L696 144Z" fill="#242b38" stroke="#242b38"></path><path d="M659 0L573 0L617 74Z" fill="#293241" stroke="#293241"></path><path d="M300 0L272 72L365 66Z" fill="#242b38" stroke="#242b38"></path><path d="M365 66L272 72L322 144Z" fill="#262e3c" stroke="#262e3c"></path><path d="M447 0L356 0L365 66Z" fill="#293241" stroke="#293241"></path><path d="M239 0L251 86L272 72Z" fill="#212733" stroke="#212733"></path><path d="M272 72L251 86L322 144Z" fill="#212733" stroke="#212733"></path><path d="M179 364L229 383L254 280Z" fill="#272f3d" stroke="#272f3d"></path><path d="M254 280L229 383L278 362Z" fill="#272f3d" stroke="#272f3d"></path><path d="M620 450L689 450L668 374Z" fill="#28313f" stroke="#28313f"></path><path d="M804 177L749 122L727 210Z" fill="#232a36" stroke="#232a36"></path><path d="M727 210L749 122L696 144Z" fill="#262e3c" stroke="#262e3c"></path><path d="M356 0L300 0L365 66Z" fill="#1f252f" stroke="#1f252f"></path><path d="M251 86L193 129L238 194Z" fill="#232a36" stroke="#232a36"></path><path d="M131 283L179 364L254 280Z" fill="#202631" stroke="#202631"></path><path d="M152 71L193 129L251 86Z" fill="#262e3c" stroke="#262e3c"></path><path d="M726 44L659 0L659 55Z" fill="#1f252f" stroke="#1f252f"></path><path d="M659 55L659 0L617 74Z" fill="#293241" stroke="#293241"></path><path d="M757 450L775 345L668 374Z" fill="#242b38" stroke="#242b38"></path><path d="M726 298L799 214L727 210Z" fill="#293241" stroke="#293241"></path><path d="M131 283L254 280L238 194Z" fill="#212733" stroke="#212733"></path><path d="M229 383L224 450L303 450Z" fill="#212733" stroke="#212733"></path><path d="M163 450L224 450L229 383Z" fill="#222934" stroke="#222934"></path><path d="M749 122L726 44L696 144Z" fill="#212733" stroke="#212733"></path><path d="M838 273L799 214L726 298Z" fill="#232a36" stroke="#232a36"></path><path d="M805 0L754 0L726 44Z" fill="#272f3d" stroke="#272f3d"></path><path d="M799 214L804 177L727 210Z" fill="#232a36" stroke="#232a36"></path><path d="M300 0L239 0L272 72Z" fill="#212733" stroke="#212733"></path><path d="M689 450L757 450L668 374Z" fill="#272f3d" stroke="#272f3d"></path><path d="M775 345L838 273L726 298Z" fill="#28313f" stroke="#28313f"></path><path d="M123 223L131 283L238 194Z" fill="#1f252f" stroke="#1f252f"></path><path d="M179 364L163 450L229 383Z" fill="#252c3a" stroke="#252c3a"></path><path d="M123 223L238 194L124 157Z" fill="#272f3d" stroke="#272f3d"></path><path d="M124 157L238 194L193 129Z" fill="#232a36" stroke="#232a36"></path><path d="M842 359L838 273L775 345Z" fill="#28313f" stroke="#28313f"></path><path d="M799 214L900 205L804 177Z" fill="#272f3d" stroke="#272f3d"></path><path d="M152 71L124 157L193 129Z" fill="#262e3c" stroke="#262e3c"></path><path d="M239 0L152 71L251 86Z" fill="#28313f" stroke="#28313f"></path><path d="M48 391L163 450L179 364Z" fill="#212733" stroke="#212733"></path><path d="M837 91L726 44L749 122Z" fill="#232a36" stroke="#232a36"></path><path d="M726 44L754 0L659 0Z" fill="#202631" stroke="#202631"></path><path d="M837 91L749 122L804 177Z" fill="#242b38" stroke="#242b38"></path><path d="M79 82L103 168L124 157Z" fill="#212733" stroke="#212733"></path><path d="M124 157L103 168L123 223Z" fill="#202631" stroke="#202631"></path><path d="M123 223L55 276L131 283Z" fill="#212733" stroke="#212733"></path><path d="M131 283L48 391L179 364Z" fill="#202631" stroke="#202631"></path><path d="M815 450L842 359L775 345Z" fill="#28313f" stroke="#28313f"></path><path d="M757 450L815 450L775 345Z" fill="#222934" stroke="#222934"></path><path d="M900 205L799 214L838 273Z" fill="#202631" stroke="#202631"></path><path d="M900 164L837 91L804 177Z" fill="#28313f" stroke="#28313f"></path><path d="M0 153L69 205L103 168Z" fill="#272f3d" stroke="#272f3d"></path><path d="M103 168L69 205L123 223Z" fill="#28313f" stroke="#28313f"></path><path d="M239 0L151 0L152 71Z" fill="#252c3a" stroke="#252c3a"></path><path d="M152 71L79 82L124 157Z" fill="#202631" stroke="#202631"></path><path d="M837 91L805 0L726 44Z" fill="#293241" stroke="#293241"></path><path d="M69 205L55 276L123 223Z" fill="#293241" stroke="#293241"></path><path d="M900 309L900 205L838 273Z" fill="#222934" stroke="#222934"></path><path d="M837 91L900 43L805 0Z" fill="#242b38" stroke="#242b38"></path><path d="M900 309L838 273L842 359Z" fill="#262e3c" stroke="#262e3c"></path><path d="M900 396L900 309L842 359Z" fill="#1f252f" stroke="#1f252f"></path><path d="M70 0L79 82L152 71Z" fill="#262e3c" stroke="#262e3c"></path><path d="M69 205L0 227L55 276Z" fill="#272f3d" stroke="#272f3d"></path><path d="M900 205L900 164L804 177Z" fill="#293241" stroke="#293241"></path><path d="M815 450L900 396L842 359Z" fill="#28313f" stroke="#28313f"></path><path d="M55 276L48 391L131 283Z" fill="#293241" stroke="#293241"></path><path d="M48 391L53 450L163 450Z" fill="#272f3d" stroke="#272f3d"></path><path d="M815 450L900 450L900 396Z" fill="#212733" stroke="#212733"></path><path d="M900 164L900 43L837 91Z" fill="#293241" stroke="#293241"></path><path d="M151 0L70 0L152 71Z" fill="#232a36" stroke="#232a36"></path><path d="M0 153L0 227L69 205Z" fill="#28313f" stroke="#28313f"></path><path d="M55 276L0 343L48 391Z" fill="#252c3a" stroke="#252c3a"></path><path d="M0 153L103 168L79 82Z" fill="#212733" stroke="#212733"></path><path d="M48 391L0 450L53 450Z" fill="#262e3c" stroke="#262e3c"></path><path d="M0 227L0 292L55 276Z" fill="#252c3a" stroke="#252c3a"></path><path d="M0 292L0 343L55 276Z" fill="#262e3c" stroke="#262e3c"></path><path d="M0 94L0 153L79 82Z" fill="#222934" stroke="#222934"></path><path d="M900 43L900 0L805 0Z" fill="#242b38" stroke="#242b38"></path><path d="M0 0L0 94L79 82Z" fill="#232a36" stroke="#232a36"></path><path d="M0 343L0 450L48 391Z" fill="#28313f" stroke="#28313f"></path><path d="M70 0L0 0L79 82Z" fill="#202631" stroke="#202631"></path></g></svg>