<svg id="visual" viewBox="0 0 900 600" width="900" height="600" xmlns="http://www.w3.org/2000/svg" xmlns:xlink="http://www.w3.org/1999/xlink" version="1.1"><g stroke-width="1" stroke-linejoin="bevel"><path d="M477 308L394 326L495 389Z" fill="#19435d" stroke="#19435d"></path><path d="M394 326L410 420L495 389Z" fill="#246688" stroke="#246688"></path><path d="M394 326L321 430L410 420Z" fill="#112e42" stroke="#112e42"></path><path d="M495 389L580 285L477 308Z" fill="#1d4e6b" stroke="#1d4e6b"></path><path d="M419 191L297 303L394 326Z" fill="#277297" stroke="#277297"></path><path d="M419 191L394 326L477 308Z" fill="#205a7a" stroke="#205a7a"></path><path d="M394 326L297 303L321 430Z" fill="#081a28" stroke="#081a28"></path><path d="M321 430L396 508L410 420Z" fill="#081a28" stroke="#081a28"></path><path d="M410 420L480 535L495 389Z" fill="#1d4e6b" stroke="#1d4e6b"></path><path d="M527 161L419 191L477 308Z" fill="#277297" stroke="#277297"></path><path d="M396 508L480 535L410 420Z" fill="#205a7a" stroke="#205a7a"></path><path d="M495 389L630 427L580 285Z" fill="#0c2435" stroke="#0c2435"></path><path d="M579 528L630 427L495 389Z" fill="#112e42" stroke="#112e42"></path><path d="M580 285L527 161L477 308Z" fill="#246688" stroke="#246688"></path><path d="M214 392L275 490L321 430Z" fill="#00101c" stroke="#00101c"></path><path d="M321 430L275 490L396 508Z" fill="#1d4e6b" stroke="#1d4e6b"></path><path d="M395 600L462 600L480 535Z" fill="#15384f" stroke="#15384f"></path><path d="M419 191L268 235L297 303Z" fill="#00101c" stroke="#00101c"></path><path d="M297 303L214 392L321 430Z" fill="#15384f" stroke="#15384f"></path><path d="M480 535L579 528L495 389Z" fill="#1d4e6b" stroke="#1d4e6b"></path><path d="M660 281L595 189L580 285Z" fill="#112e42" stroke="#112e42"></path><path d="M580 285L595 189L527 161Z" fill="#277297" stroke="#277297"></path><path d="M630 427L660 281L580 285Z" fill="#277297" stroke="#277297"></path><path d="M202 287L214 392L297 303Z" fill="#0c2435" stroke="#0c2435"></path><path d="M395 600L480 535L396 508Z" fill="#297ea6" stroke="#297ea6"></path><path d="M480 535L595 600L579 528Z" fill="#15384f" stroke="#15384f"></path><path d="M334 600L395 600L396 508Z" fill="#19435d" stroke="#19435d"></path><path d="M268 235L202 287L297 303Z" fill="#19435d" stroke="#19435d"></path><path d="M478 68L370 111L419 191Z" fill="#15384f" stroke="#15384f"></path><path d="M419 191L370 111L268 235Z" fill="#19435d" stroke="#19435d"></path><path d="M268 235L188 174L202 287Z" fill="#19435d" stroke="#19435d"></path><path d="M275 490L334 600L396 508Z" fill="#081a28" stroke="#081a28"></path><path d="M191 600L334 600L275 490Z" fill="#00101c" stroke="#00101c"></path><path d="M107 381L201 482L214 392Z" fill="#081a28" stroke="#081a28"></path><path d="M214 392L201 482L275 490Z" fill="#1d4e6b" stroke="#1d4e6b"></path><path d="M704 516L725 373L630 427Z" fill="#00101c" stroke="#00101c"></path><path d="M630 427L725 373L660 281Z" fill="#112e42" stroke="#112e42"></path><path d="M462 600L595 600L480 535Z" fill="#246688" stroke="#246688"></path><path d="M579 528L704 516L630 427Z" fill="#15384f" stroke="#15384f"></path><path d="M800 192L671 180L660 281Z" fill="#246688" stroke="#246688"></path><path d="M660 281L671 180L595 189Z" fill="#1d4e6b" stroke="#1d4e6b"></path><path d="M578 92L478 68L527 161Z" fill="#15384f" stroke="#15384f"></path><path d="M527 161L478 68L419 191Z" fill="#277297" stroke="#277297"></path><path d="M578 92L527 161L595 189Z" fill="#297ea6" stroke="#297ea6"></path><path d="M666 96L578 92L595 189Z" fill="#277297" stroke="#277297"></path><path d="M661 600L704 516L579 528Z" fill="#277297" stroke="#277297"></path><path d="M293 69L233 133L370 111Z" fill="#19435d" stroke="#19435d"></path><path d="M370 111L233 133L268 235Z" fill="#205a7a" stroke="#205a7a"></path><path d="M233 133L188 174L268 235Z" fill="#297ea6" stroke="#297ea6"></path><path d="M202 287L107 381L214 392Z" fill="#297ea6" stroke="#297ea6"></path><path d="M595 600L661 600L579 528Z" fill="#1d4e6b" stroke="#1d4e6b"></path><path d="M374 0L293 69L370 111Z" fill="#205a7a" stroke="#205a7a"></path><path d="M233 133L85 131L188 174Z" fill="#0c2435" stroke="#0c2435"></path><path d="M188 174L135 236L202 287Z" fill="#246688" stroke="#246688"></path><path d="M65 314L107 381L202 287Z" fill="#112e42" stroke="#112e42"></path><path d="M778 90L666 96L671 180Z" fill="#112e42" stroke="#112e42"></path><path d="M671 180L666 96L595 189Z" fill="#297ea6" stroke="#297ea6"></path><path d="M578 92L512 0L478 68Z" fill="#19435d" stroke="#19435d"></path><path d="M201 482L191 600L275 490Z" fill="#246688" stroke="#246688"></path><path d="M132 518L191 600L201 482Z" fill="#00101c" stroke="#00101c"></path><path d="M107 381L132 518L201 482Z" fill="#277297" stroke="#277297"></path><path d="M612 0L512 0L578 92Z" fill="#297ea6" stroke="#297ea6"></path><path d="M478 68L374 0L370 111Z" fill="#277297" stroke="#277297"></path><path d="M512 0L374 0L478 68Z" fill="#246688" stroke="#246688"></path><path d="M823 373L806 283L725 373Z" fill="#0c2435" stroke="#0c2435"></path><path d="M725 373L806 283L660 281Z" fill="#205a7a" stroke="#205a7a"></path><path d="M834 462L823 373L725 373Z" fill="#081a28" stroke="#081a28"></path><path d="M834 462L725 373L704 516Z" fill="#205a7a" stroke="#205a7a"></path><path d="M0 195L65 314L135 236Z" fill="#205a7a" stroke="#205a7a"></path><path d="M135 236L65 314L202 287Z" fill="#112e42" stroke="#112e42"></path><path d="M0 460L90 600L132 518Z" fill="#19435d" stroke="#19435d"></path><path d="M806 283L800 192L660 281Z" fill="#0c2435" stroke="#0c2435"></path><path d="M900 237L800 192L806 283Z" fill="#19435d" stroke="#19435d"></path><path d="M666 96L612 0L578 92Z" fill="#0c2435" stroke="#0c2435"></path><path d="M738 0L612 0L666 96Z" fill="#277297" stroke="#277297"></path><path d="M374 0L271 0L293 69Z" fill="#246688" stroke="#246688"></path><path d="M293 69L205 0L233 133Z" fill="#205a7a" stroke="#205a7a"></path><path d="M188 174L85 131L135 236Z" fill="#15384f" stroke="#15384f"></path><path d="M785 600L834 462L704 516Z" fill="#15384f" stroke="#15384f"></path><path d="M661 600L785 600L704 516Z" fill="#205a7a" stroke="#205a7a"></path><path d="M125 0L85 131L233 133Z" fill="#112e42" stroke="#112e42"></path><path d="M800 192L778 90L671 180Z" fill="#0c2435" stroke="#0c2435"></path><path d="M0 460L132 518L107 381Z" fill="#15384f" stroke="#15384f"></path><path d="M132 518L90 600L191 600Z" fill="#081a28" stroke="#081a28"></path><path d="M271 0L205 0L293 69Z" fill="#081a28" stroke="#081a28"></path><path d="M65 314L0 392L107 381Z" fill="#277297" stroke="#277297"></path><path d="M0 323L0 392L65 314Z" fill="#081a28" stroke="#081a28"></path><path d="M0 195L0 323L65 314Z" fill="#112e42" stroke="#112e42"></path><path d="M0 392L0 460L107 381Z" fill="#0c2435" stroke="#0c2435"></path><path d="M900 439L823 373L834 462Z" fill="#00101c" stroke="#00101c"></path><path d="M900 439L900 310L823 373Z" fill="#246688" stroke="#246688"></path><path d="M823 373L900 310L806 283Z" fill="#112e42" stroke="#112e42"></path><path d="M800 192L900 94L778 90Z" fill="#0c2435" stroke="#0c2435"></path><path d="M900 483L900 439L834 462Z" fill="#1d4e6b" stroke="#1d4e6b"></path><path d="M764 0L738 0L778 90Z" fill="#19435d" stroke="#19435d"></path><path d="M778 90L738 0L666 96Z" fill="#081a28" stroke="#081a28"></path><path d="M900 310L900 237L806 283Z" fill="#081a28" stroke="#081a28"></path><path d="M900 600L900 483L834 462Z" fill="#19435d" stroke="#19435d"></path><path d="M0 82L0 195L85 131Z" fill="#205a7a" stroke="#205a7a"></path><path d="M85 131L0 195L135 236Z" fill="#15384f" stroke="#15384f"></path><path d="M205 0L125 0L233 133Z" fill="#0c2435" stroke="#0c2435"></path><path d="M900 0L764 0L778 90Z" fill="#246688" stroke="#246688"></path><path d="M0 460L0 600L90 600Z" fill="#081a28" stroke="#081a28"></path><path d="M785 600L900 600L834 462Z" fill="#081a28" stroke="#081a28"></path><path d="M125 0L0 82L85 131Z" fill="#277297" stroke="#277297"></path><path d="M900 237L900 94L800 192Z" fill="#19435d" stroke="#19435d"></path><path d="M125 0L0 0L0 82Z" fill="#0c2435" stroke="#0c2435"></path><path d="M900 94L900 0L778 90Z" fill="#277297" stroke="#277297"></path></g></svg>