<svg id="visual" viewBox="0 0 900 600" width="900" height="600" xmlns="http://www.w3.org/2000/svg" xmlns:xlink="http://www.w3.org/1999/xlink" version="1.1"><rect x="0" y="0" width="900" height="600" fill="#002233"></rect><path d="M0 463L21.5 459.5C43 456 86 449 128.8 437.2C171.7 425.3 214.3 408.7 257.2 414C300 419.3 343 446.7 385.8 448.2C428.7 449.7 471.3 425.3 514.2 417.2C557 409 600 417 642.8 420.3C685.7 423.7 728.3 422.3 771.2 422.8C814 423.3 857 425.7 878.5 426.8L900 428L900 601L878.5 601C857 601 814 601 771.2 601C728.3 601 685.7 601 642.8 601C600 601 557 601 514.2 601C471.3 601 428.7 601 385.8 601C343 601 300 601 257.2 601C214.3 601 171.7 601 128.8 601C86 601 43 601 21.5 601L0 601Z" fill="#0066FF" stroke-linecap="round" stroke-linejoin="miter"></path></svg>